# xmcd
#
# Track frame offsets: 
#        150
#        16988
#        28814
#        39508
#        61776
#        77686
#        89655
#        105238
#        126482
#        151547
#        169307
#        196886
#        218356
#
# Disc length: 3104 seconds
#
# Revision: 0
# Processed by: cddbd v1.5.2PL0 Copyright (c) Steve Scherf et al.
# Submitted via: ExactAudioCopyFreeDBPlugin 1.0
#
DISCID=9b0c1e0d
DTITLE=Kurt Crandall - Get Wrong With Me
DYEAR=2009
DGENRE=Blues
TTITLE0=Shorty's Got To Go
TTITLE1=Boogy Fool
TTITLE2=Speak Up
TTITLE3=Get Wrong With Me
TTITLE4=Gourment Ice
TTITLE5=Annie
TTITLE6=Dissatisfied
TTITLE7=Take My Love
TTITLE8=Pets Ain't People
TTITLE9=Late Night Rendezvous
TTITLE10=Spider In My Stew
TTITLE11=Hypomanic
TTITLE12=Barroom Light
EXTD=
EXTT0=
EXTT1=
EXTT2=
EXTT3=
EXTT4=
EXTT5=
EXTT6=
EXTT7=
EXTT8=
EXTT9=
EXTT10=
EXTT11=
EXTT12=
PLAYORDER=
